<?xml version="1.0" encoding="iso-8859-1"?>
<!-- Generator: Adobe Illustrator 19.0.0, SVG Export Plug-In . SVG Version: 6.00 Build 0)  -->
<svg version="1.1" id="Layer_1" xmlns="http://www.w3.org/2000/svg" xmlns:xlink="http://www.w3.org/1999/xlink" x="0px" y="0px"
	 viewBox="0 0 511.999 511.999" style="enable-background:new 0 0 511.999 511.999;" xml:space="preserve">
<path style="fill:#43B05C;" d="M409.427,311.408c35.715,15.243,60.749,50.735,60.749,92.013
	c0,55.297-44.838,100.135-100.135,100.135c-20.361,0-39.386-6.12-55.185-16.69h-0.111c-27.037-17.913-44.838-48.621-44.838-83.446
	c0-55.297,44.838-100.135,100.135-100.135C384.06,303.286,397.3,306.178,409.427,311.408z"/>
<path style="fill:#E7ECED;" d="M342.67,175.336v22.252c0-18.469,14.909-33.378,33.378-33.378c18.469,0,33.378,14.909,33.378,33.378
	v113.82c-12.128-5.229-25.367-8.122-39.386-8.122c-55.297,0-100.135,44.838-100.135,100.135c0,34.825,17.802,65.533,44.838,83.446
	h-66.646c-55.297,0-105.699-44.838-105.699-100.135l-94.57-133.512c0,0-16.69-22.252,5.564-38.942c0,0,22.252-22.252,50.068,5.562
	s38.942,38.942,38.942,38.942V41.821c0-18.469,14.909-33.378,33.378-33.378s33.378,14.909,33.378,33.378v100.135
	c0-18.469,14.909-33.378,33.378-33.378s33.378,14.909,33.378,33.378v33.378c0-18.469,14.909-33.378,33.378-33.378
	C327.761,141.958,342.67,156.866,342.67,175.336z"/>
<path d="M417.87,306.01V197.588c0-23.06-18.761-41.821-41.821-41.821c-9.919,0-19.044,3.472-26.22,9.263
	c-4.602-18.093-21.032-31.515-40.537-31.515c-9.336,0-17.968,3.076-24.935,8.267c-0.096-22.979-18.821-41.645-41.821-41.645
	c-9.336,0-17.968,3.076-24.935,8.265v-66.58C217.6,18.761,198.839,0,175.779,0s-41.821,18.761-41.821,41.821v196.576l-24.528-24.528
	c-17.103-17.104-33.004-17.854-43.333-15.469c-9.799,2.261-16.29,7.689-18.176,9.428c-11.374,8.72-16.33,20.665-13.963,33.688
	c1.63,8.963,6.178,15.491,7.029,16.65l93.008,131.306c0.758,27.792,13.038,54.064,34.773,74.25
	c21.615,20.075,50.53,31.588,79.331,31.588h64.214h0.036c17.22,10.927,37.11,16.69,57.692,16.69
	c59.871,0,108.578-48.709,108.578-108.578C478.619,361.781,454.951,324.153,417.87,306.01z M180.258,451.349
	c-18.969-17.616-29.415-40.565-29.415-64.617v-2.687L54.718,248.339l-0.101-0.14c-1.909-2.623-10.702-16.261,3.84-27.167
	l0.423-0.304l0.424-0.424c0.044-0.042,4.454-4.222,11.199-5.58c8.779-1.771,17.858,1.961,26.985,11.088l53.355,53.355V41.821
	c0-13.749,11.186-24.935,24.935-24.935s24.935,11.186,24.935,24.935v166.892h16.887v-66.756c0-13.749,11.186-24.935,24.935-24.935
	c13.749,0,24.935,11.186,24.935,24.935v100.135h16.887v-66.756c0-13.749,11.187-24.935,24.935-24.935s24.935,11.186,24.935,24.935
	v100.135h16.887v-77.883c0-13.749,11.187-24.935,24.935-24.935s24.935,11.186,24.935,24.935v101.78
	c-10.005-3.001-20.367-4.526-30.943-4.526c-59.871,0-108.578,48.708-108.578,108.578c0,28.32,10.954,55.03,30.087,75.003h-43.451
	C223.513,478.424,198.785,468.555,180.258,451.349z M370.041,495.113c-18.106,0-35.565-5.278-50.491-15.263l-1.793-1.14
	c-24.713-17.149-39.409-45.145-39.409-75.288c0-50.56,41.132-91.692,91.692-91.692c12.48,0,24.607,2.5,36.044,7.432l0.028,0.012
	c33.789,14.421,55.62,47.49,55.62,84.247C461.733,453.98,420.6,495.113,370.041,495.113z"/>
<polygon points="378.484,342.228 361.598,342.228 361.598,394.978 308.846,394.978 308.846,411.865 361.598,411.865 
	361.598,464.615 378.484,464.615 378.484,411.865 431.234,411.865 431.234,394.978 378.484,394.978 "/>
<g>
</g>
<g>
</g>
<g>
</g>
<g>
</g>
<g>
</g>
<g>
</g>
<g>
</g>
<g>
</g>
<g>
</g>
<g>
</g>
<g>
</g>
<g>
</g>
<g>
</g>
<g>
</g>
<g>
</g>
</svg>
