<?xml version="1.0" encoding="iso-8859-1"?>
<!-- Generator: Adobe Illustrator 19.0.0, SVG Export Plug-In . SVG Version: 6.00 Build 0)  -->
<svg version="1.1" id="Layer_1" xmlns="http://www.w3.org/2000/svg" xmlns:xlink="http://www.w3.org/1999/xlink" x="0px" y="0px"
	 viewBox="0 0 239.809 239.809" style="enable-background:new 0 0 239.809 239.809;" xml:space="preserve">
<g>
	<path style="fill:#1D1D1B;" d="M230.47,201.954c0.201-0.442,0.522-0.764,0.924-1.005c-4.943-21.097-9.082-42.878-12.016-64.297
		c-1.607,21.781-4.34,43.843-7.796,65.503c2.451-0.924,5.144-0.763,7.796-0.844C220.504,201.271,230.47,200.95,230.47,201.954z
		 M239.793,219.113c0.281,2.21-3.255,2.532-3.777,0.522c-1.206-4.621-2.331-9.363-3.496-14.065
		c-2.331,1.005-5.626,0.322-8.037,0.281c-4.099-0.08-9.484,0.643-13.342-1.085c-0.964,5.787-1.929,11.614-2.974,17.36
		c-0.402,2.13-3.978,1.607-3.777-0.522c2.331-29.737,6.349-60.6,12.136-90.137c-20.053,34.6-58.43,63.252-98.817,65.663
		c-46.656,2.773-77.679-29.737-99.178-66.708c9.162,28.17,16.757,57.948,21.218,87.203c0.362,2.371-3.094,3.456-3.697,1.005
		c-0.965-3.697-1.849-7.394-2.733-11.091c-0.12,0.04-0.201,0.08-0.321,0.12c-9.203,0.723-18.767,1.688-27.969,1.005
		c-0.643,3.777-1.246,7.555-1.929,11.292c-0.322,1.768-3.255,1.366-3.094-0.402c2.572-31.787,7.876-64.016,13.743-95.32
		c0.201-0.965,1.286-1.206,2.05-0.844c0.241-0.08,0.482-0.121,0.763-0.04c67.391,20.776,133.497,25.438,199.361-3.054
		c0.643-0.281,1.206-0.161,1.688,0.161c0.522-0.763,2.049-0.683,2.331,0.362c0.04,0.08,0.04,0.161,0.04,0.241
		c0.201,0.121,0.362,0.362,0.321,0.643c0,0.12,0,0.281,0,0.402c0.08,0.362,0.161,0.723,0.281,1.085c0,0,0,0.04,0,0.08
		C229.265,154.133,235.574,187.367,239.793,219.113z M120.603,192.43c39.583-3.938,77.799-33.635,95.762-68.517
		c-60.761,30.34-134.14,25.96-196.749,3.175c10.77,15.15,21.017,31.948,34.801,44.325C71.134,186.402,98.38,194.64,120.603,192.43z
		 M32.154,202.959c-5.787-23.75-11.131-47.7-16.436-71.531c-2.974,24.674-6.108,49.549-10.167,74.102
		C14.191,203.803,23.353,203.441,32.154,202.959z"/>
	<path style="fill:#1D1D1B;" d="M193.941,145.011c0.362-0.964,1.848-0.603,1.567,0.442c-0.884,3.496-3.577,6.47-7.033,7.676
		c-0.723,0.241-1.125-0.844-0.482-1.246C190.767,150.195,192.696,148.065,193.941,145.011z"/>
	<path style="fill:#1D1D1B;" d="M191.771,140.751c0.563-0.683,1.688,0.201,1.205,0.924c-1.607,2.291-3.416,4.461-5.224,6.631
		c-0.522,0.603-1.607-0.241-1.125-0.884C188.275,145.132,189.923,142.881,191.771,140.751z"/>
	<path style="fill:#33B4AE;" d="M216.365,123.914c-17.963,34.881-56.18,64.578-95.762,68.517
		c-22.223,2.21-49.468-6.028-66.186-21.017c-13.784-12.377-24.031-29.175-34.801-44.325
		C82.225,149.874,155.604,154.254,216.365,123.914z M195.509,145.453c0.281-1.045-1.206-1.406-1.567-0.442
		c-1.246,3.054-3.175,5.184-5.947,6.872c-0.643,0.402-0.241,1.487,0.482,1.246C191.932,151.923,194.625,148.949,195.509,145.453z
		 M192.977,141.676c0.482-0.723-0.643-1.607-1.205-0.924c-1.849,2.13-3.496,4.38-5.144,6.671c-0.482,0.643,0.603,1.487,1.125,0.884
		C189.561,146.136,191.37,143.966,192.977,141.676z M133.341,152.445c0.884-0.603,0.121-1.969-0.804-1.447
		c-3.094,1.768-6.591,2.572-10.127,2.21c-0.924-0.08-1.125,1.487-0.241,1.607C126.229,155.379,129.966,154.696,133.341,152.445z
		 M127.756,150.275c0.603-0.281,0.161-1.326-0.482-1.085c-2.692,0.964-5.425,1.165-8.238,0.723c-0.603-0.12-0.844,0.723-0.281,0.884
		C121.808,151.762,124.862,151.521,127.756,150.275z M98.34,169.524c0.804,0.08,1.005-1.286,0.161-1.406
		c-2.532-0.362-12.216-1.768-12.096-5.305c0.04-1.085-1.527-1.045-1.607,0c-0.201,2.371,1.889,3.577,3.818,4.42
		C91.709,168.64,94.924,169.323,98.34,169.524z M53.171,160.041c0.924,0.563,1.728-0.844,0.844-1.406
		c-3.898-2.612-7.555-5.626-10.85-8.961c-0.723-0.723-1.808,0.402-1.125,1.125C45.375,154.374,49.032,157.469,53.171,160.041z
		 M44.571,158.835c0.643,0.482,1.527-0.362,0.924-0.924c-3.094-2.773-5.787-5.787-8.238-9.082c-0.402-0.522-1.205-0.08-0.884,0.522
		C38.503,152.968,41.316,156.183,44.571,158.835z"/>
	<path style="fill:#1D1D1B;" d="M132.538,150.999c0.924-0.522,1.688,0.844,0.804,1.447c-3.376,2.25-7.113,2.934-11.172,2.371
		c-0.884-0.121-0.683-1.688,0.241-1.607C125.947,153.571,129.443,152.767,132.538,150.999z"/>
	<path style="fill:#1D1D1B;" d="M127.273,149.19c0.643-0.241,1.085,0.804,0.482,1.085c-2.893,1.246-5.948,1.487-9.002,0.522
		c-0.563-0.161-0.321-1.005,0.281-0.884C121.848,150.356,124.581,150.155,127.273,149.19z"/>
	<path style="fill:#1D1D1B;" d="M98.5,168.118c0.844,0.121,0.643,1.487-0.161,1.406c-3.416-0.201-6.631-0.884-9.725-2.291
		c-1.929-0.844-4.019-2.049-3.818-4.42c0.08-1.045,1.648-1.085,1.607,0C86.284,166.35,95.969,167.756,98.5,168.118z"/>
	<path style="fill:#1D1D1B;" d="M54.015,158.634c0.884,0.563,0.08,1.969-0.844,1.406c-4.139-2.572-7.796-5.666-11.132-9.243
		c-0.683-0.723,0.402-1.848,1.125-1.125C46.46,153.008,50.117,156.022,54.015,158.634z"/>
	<path style="fill:#1D1D1B;" d="M51.684,24.936c1.929,0.723,2.371,3.134,0.563,4.34c-5.706,3.818-11.373,7.635-17.079,11.453
		c4.661,0.362,9.323,0.723,13.904,1.326c2.652,0.362,2.853,4.38,0,4.3c-6.952-0.201-13.944-0.924-20.896-1.447
		c-2.371-0.201-3.175-3.094-1.165-4.42c6.269-4.26,12.578-8.439,18.847-12.659c-6.189-2.29-12.458-4.541-18.445-7.314
		c-2.331-1.085-0.643-4.822,1.768-4.099C36.775,18.788,44.21,22.083,51.684,24.936z"/>
	<path style="fill:#1D1D1B;" d="M48.871,80.513c2.25-0.442,3.898,2.733,1.648,3.898c-5.144,2.652-11.172,3.938-16.757,5.305
		c-1.688,0.402-3.496-1.125-2.893-2.934c1.165-3.697,2.371-7.434,3.576-11.131c-2.933,1.808-5.666,3.898-8.76,5.586
		c-1.447,0.804-3.335-0.844-2.371-2.331c3.094-4.742,8.921-7.796,13.944-10.006c1.728-0.764,4.139,0.482,3.456,2.652
		c-1.326,4.139-2.652,8.238-3.978,12.377C40.754,82.723,44.772,81.317,48.871,80.513z"/>
	<path style="fill:#1D1D1B;" d="M45.496,157.911c0.603,0.563-0.281,1.407-0.924,0.924c-3.255-2.652-6.068-5.867-8.198-9.484
		c-0.321-0.603,0.482-1.045,0.884-0.522C39.709,152.124,42.401,155.138,45.496,157.911z"/>
	<path style="fill:#1D1D1B;" d="M43.727,102.856c2.049,0.482,1.929,3.014,0.522,4.059c-1.808,1.366-3.737,2.612-5.706,3.737
		c1.165,0.322,2.291,0.643,3.416,1.045c2.451,0.804,1.447,4.541-1.045,3.818c-2.893-0.563-5.747-1.407-8.64-2.17
		c-1.688-0.442-2.17-3.054-0.482-3.858c1.969-1.005,3.898-2.09,5.787-3.295c-2.09-0.402-4.139-0.804-6.229-1.206
		c-2.974-0.603-1.728-5.224,1.246-4.581C36.333,101.209,40.03,102.012,43.727,102.856z"/>
</g>
<g>
</g>
<g>
</g>
<g>
</g>
<g>
</g>
<g>
</g>
<g>
</g>
<g>
</g>
<g>
</g>
<g>
</g>
<g>
</g>
<g>
</g>
<g>
</g>
<g>
</g>
<g>
</g>
<g>
</g>
</svg>
