<?xml version="1.0" encoding="iso-8859-1"?>
<!-- Generator: Adobe Illustrator 18.0.0, SVG Export Plug-In . SVG Version: 6.00 Build 0)  -->
<!DOCTYPE svg PUBLIC "-//W3C//DTD SVG 1.1//EN" "http://www.w3.org/Graphics/SVG/1.1/DTD/svg11.dtd">
<svg version="1.1" id="Capa_1" xmlns="http://www.w3.org/2000/svg" xmlns:xlink="http://www.w3.org/1999/xlink" x="0px" y="0px"
	 viewBox="0 0 458.889 458.889" style="enable-background:new 0 0 458.889 458.889;" xml:space="preserve">
<g>
	<path d="M250.303,115.196l7.273-13.093c9.663-17.393,31.1-24.097,48.831-15.705l16.216-44.066c0.906-2.461,0.682-5.197-0.611-7.478
		c-1.294-2.281-3.526-3.878-6.103-4.364l-65.895-12.439c-2.798-0.528-5.68,0.312-7.756,2.26c-2.076,1.948-3.097,4.771-2.748,7.597
		L250.303,115.196z"/>
	<path d="M454.142,331.792L365.89,220.029c-7.29-9.232-20.541-11.119-30.118-4.29l-40.926,29.184l-21.502-25.271
		c-4.777,2.427-10.282,3.283-15.643,2.292l-72.18-13.465l70.66-5.626c6.136-0.488,11.62-4.016,14.61-9.397l35.665-64.198
		c4.93-8.874,1.733-20.065-7.142-24.995c-8.874-4.932-20.066-1.734-24.995,7.142l-30.879,55.583l-60.833,4.844l38.377-13.719
		l-4.051-4.761c-9.809-11.528-27.106-12.922-38.635-3.113l-35.519,30.222c-5.82,4.952-9.309,12.11-9.623,19.746
		c-0.315,7.636,2.573,15.056,7.967,20.471l95.756,96.128c4.958,4.978,11.89,7.465,18.882,6.775c5.455-0.538,10.49-2.973,14.29-6.792
		c0.014-0.01,0.028-0.017,0.042-0.027l74.193-52.908l75.235,95.279c7.554,9.567,21.424,11.188,30.981,3.642
		C460.061,355.224,461.691,341.353,454.142,331.792z"/>
	<circle cx="140.126" cy="98.268" r="40.572"/>
	<path d="M334.477,289.639l-85.435,61.51L99.304,201.411c6.937,1.48,13.826-0.712,18.594-5.479c7.923-7.924,7.923-20.769,0-28.692
		l-51.653-51.652c-7.923-7.923-20.768-7.921-28.691,0c-5.049,5.05-6.866,12.095-5.48,18.594l-6.1-6.099
		c-5.942-5.942-15.576-5.942-21.518,0c-5.942,5.942-5.942,15.576,0,21.518L224.02,369.164l-61.479,44.263
		c-6.82,4.909-8.368,14.418-3.458,21.239c4.911,6.82,14.421,8.367,21.239,3.457l65.5-47.157l45.569,45.569
		c5.943,5.943,15.576,5.942,21.518,0c5.943-5.942,5.943-15.576,0-21.518l-42.065-42.065l81.415-58.615
		c6.819-4.909,8.368-14.418,3.457-21.239C350.807,286.277,341.299,284.729,334.477,289.639z"/>
</g>
<g>
</g>
<g>
</g>
<g>
</g>
<g>
</g>
<g>
</g>
<g>
</g>
<g>
</g>
<g>
</g>
<g>
</g>
<g>
</g>
<g>
</g>
<g>
</g>
<g>
</g>
<g>
</g>
<g>
</g>
</svg>
