<?xml version="1.0" encoding="iso-8859-1"?>
<!-- Generator: Adobe Illustrator 19.1.0, SVG Export Plug-In . SVG Version: 6.00 Build 0)  -->
<svg version="1.1" id="Capa_1" xmlns="http://www.w3.org/2000/svg" xmlns:xlink="http://www.w3.org/1999/xlink" x="0px" y="0px"
	 viewBox="0 0 413.54 413.54" style="enable-background:new 0 0 413.54 413.54;" xml:space="preserve">
<g>
	<path style="fill:#F998DC;" d="M53.77,135.55h-5.38c-21.841,0-39.61-17.769-39.61-39.61V10c0-5.523,4.477-10,10-10
		c5.522,0,10,4.477,10,10v85.94c0,10.813,8.797,19.61,19.61,19.61h5.38c5.522,0,10,4.477,10,10
		C63.77,131.073,59.292,135.55,53.77,135.55z"/>
	<path style="fill:#F998DC;" d="M365.15,135.55h-5.39c-5.522,0-10-4.477-10-10c0-5.523,4.478-10,10-10h5.39
		c10.814,0,19.61-8.797,19.61-19.61V10c0-5.523,4.478-10,10-10c5.523,0,10,4.477,10,10v85.94
		C404.76,117.781,386.991,135.55,365.15,135.55z"/>
	<rect x="53.77" y="328.04" style="fill:#61B0E0;" width="305.99" height="27"/>
	<rect x="53.77" y="301.05" style="fill:#60E2BD;" width="305.99" height="26.99"/>
	<rect x="53.77" y="355.04" style="fill:#F7F09A;" width="305.99" height="58.5"/>
	<polygon style="fill:#F7F09A;" points="359.76,125.55 359.76,301.05 53.77,301.05 53.77,125.55 53.77,103.55 359.76,103.55 	"/>
</g>
<g>
</g>
<g>
</g>
<g>
</g>
<g>
</g>
<g>
</g>
<g>
</g>
<g>
</g>
<g>
</g>
<g>
</g>
<g>
</g>
<g>
</g>
<g>
</g>
<g>
</g>
<g>
</g>
<g>
</g>
</svg>
