<?xml version="1.0" encoding="iso-8859-1"?>
<!-- Generator: Adobe Illustrator 18.0.0, SVG Export Plug-In . SVG Version: 6.00 Build 0)  -->
<!DOCTYPE svg PUBLIC "-//W3C//DTD SVG 1.1//EN" "http://www.w3.org/Graphics/SVG/1.1/DTD/svg11.dtd">
<svg version="1.1" id="Capa_1" xmlns="http://www.w3.org/2000/svg" xmlns:xlink="http://www.w3.org/1999/xlink" x="0px" y="0px"
	 viewBox="0 0 132.273 132.273" style="enable-background:new 0 0 132.273 132.273;" xml:space="preserve">
<g>
	<path style="fill:#90DCEB;" d="M57.855,89.936c0.175-0.005,0.348-0.02,0.521-0.02l0,0C58.202,89.916,58.029,89.931,57.855,89.936z"
		/>
	<polygon style="fill:#90DCEB;" points="56.312,74.621 56.315,74.63 61.724,90.189 61.726,90.189 56.32,74.629 56.322,74.621 
		56.331,74.615 52.205,62.684 56.31,74.615 	"/>
	<path style="fill:#586065;" d="M128.287,83.235l-2.184,0.759L76.91,101.092c-0.925-1.748-2.088-3.329-3.431-4.724L120.2,80.129
		l8.091-2.813l-21.338-61.395L51.559,35.175l-0.014,0.005l-7.936,2.772l8.635,24.723c0,0.001,0,0.003,0,0.004
		c0,0.002-0.039,0.004-0.039,0.005l4.126,11.931c0.001,0.002-0.009,0.004-0.009,0.006c0.002,0.003-0.003,0.006-0.002,0.008
		l5.406,15.56h-0.003c-1.094,0-2.213-0.271-3.346-0.271l-0.001-0.001c-0.174,0-0.347,0.061-0.521,0.066
		c-0.694,0.022-1.387,0.207-2.076,0.207c-0.001,0-0.003,0-0.003,0L32.311,22.633l-3.065-8.843L4.393,0.753
		c-1.467-0.77-3.281-0.208-4.05,1.259c-0.77,1.467-0.203,3.278,1.265,4.047l22.749,11.922l25.62,73.713
		c-4.584,1.998-8.274,5.512-10.477,10.059c-2.44,5.041-2.772,10.73-0.934,16.021c2.931,8.429,10.89,14.092,19.807,14.092
		c2.341,0,4.658-0.393,6.888-1.168c5.29-1.838,9.547-5.627,11.988-10.668c2.023-4.181,2.573-8.806,1.662-13.281l51.346-17.847
		c1.564-0.544,2.393-2.253,1.849-3.818C131.562,83.518,129.853,82.689,128.287,83.235z M120.654,73.619L68.604,91.71l-5.64-16.225
		l52.051-18.091L120.654,73.619z M51.205,41.649l52.051-18.09l5.639,16.226l-52.05,18.091L51.205,41.649z M60.995,69.817
		l-2.181-6.274l52.05-18.091l2.181,6.275L60.995,69.817z M71.85,117.415c-1.742,3.599-4.782,6.303-8.559,7.616
		c-1.594,0.554-3.248,0.835-4.917,0.835c-6.364,0-12.047-4.044-14.139-10.062c-1.313-3.776-1.076-7.838,0.666-11.437
		c1.743-3.599,4.783-6.304,8.563-7.617c1.592-0.553,3.245-0.834,4.913-0.834c6.364,0,12.046,4.042,14.138,10.06
		C73.828,109.753,73.592,113.816,71.85,117.415z"/>
	
		<rect x="52.498" y="32.128" transform="matrix(0.9446 -0.3283 0.3283 0.9446 -8.9305 28.5364)" style="fill:#FFC63F;" width="55.105" height="17.179"/>
	
		<rect x="58.377" y="54.313" transform="matrix(0.9446 -0.3283 0.3283 0.9446 -14.1588 31.4063)" style="fill:#FFC0B3;" width="55.104" height="6.643"/>
	
		<rect x="64.258" y="65.963" transform="matrix(-0.9446 0.3283 -0.3283 -0.9446 203.0065 114.8294)" style="fill:#FFC63F;" width="55.104" height="17.177"/>
	<path style="fill:#90DCEB;" d="M58.377,95.916c-1.668,0-3.321,0.281-4.913,0.834c-3.779,1.313-6.819,4.019-8.563,7.617
		c-1.742,3.599-1.979,7.66-0.666,11.437c2.092,6.018,7.774,10.062,14.139,10.062c1.669,0,3.323-0.281,4.917-0.835
		c3.776-1.313,6.816-4.017,8.559-7.616c1.742-3.599,1.979-7.662,0.665-11.438C70.423,99.959,64.741,95.916,58.377,95.916z
		 M66.503,114.826c-1.052,2.171-2.885,3.802-5.163,4.593c-0.958,0.333-1.956,0.502-2.966,0.502c-3.84,0-7.267-2.438-8.527-6.068
		c-0.791-2.277-0.648-4.728,0.402-6.898c1.051-2.171,2.885-3.803,5.163-4.594c0.958-0.333,1.955-0.502,2.964-0.502
		c3.84,0,7.268,2.438,8.529,6.066C67.697,110.205,67.554,112.655,66.503,114.826z"/>
	<path style="fill:#FFFFFF;" d="M58.376,107.86c-0.336,0-0.671,0.057-0.994,0.169c-0.765,0.266-1.38,0.813-1.732,1.541
		c-0.353,0.729-0.4,1.551-0.135,2.315c0.534,1.537,2.292,2.411,3.856,1.867c0.766-0.266,1.38-0.813,1.732-1.541
		c0.353-0.728,0.4-1.551,0.135-2.315C60.814,108.678,59.664,107.86,58.376,107.86z"/>
	<path style="fill:#586065;" d="M58.376,101.86c-1.009,0-2.006,0.169-2.964,0.502c-2.278,0.792-4.112,2.423-5.163,4.594
		c-1.051,2.17-1.193,4.621-0.402,6.898c1.261,3.63,4.688,6.068,8.527,6.068c1.01,0,2.008-0.169,2.966-0.502
		c2.278-0.791,4.111-2.422,5.163-4.593c1.051-2.171,1.194-4.622,0.402-6.901C65.643,104.298,62.216,101.86,58.376,101.86z
		 M61.102,112.211c-0.352,0.728-0.967,1.275-1.732,1.541c-1.564,0.544-3.321-0.33-3.856-1.867c-0.266-0.765-0.218-1.587,0.135-2.315
		c0.353-0.728,0.968-1.275,1.732-1.541c0.323-0.112,0.658-0.169,0.994-0.169c1.288,0,2.439,0.818,2.861,2.036
		C61.503,110.66,61.455,111.483,61.102,112.211z"/>
</g>
<g>
</g>
<g>
</g>
<g>
</g>
<g>
</g>
<g>
</g>
<g>
</g>
<g>
</g>
<g>
</g>
<g>
</g>
<g>
</g>
<g>
</g>
<g>
</g>
<g>
</g>
<g>
</g>
<g>
</g>
</svg>
